{
  "source": "C:\\Users\\Peter\\Desktop\\stuff\\MIUN\\quantitative_research\\video_compression\\videos\\BVI-HD\\BVI-HD_CDVL_videos\\ORIG\\BallUnderWater_1920x1080_60fps.mp4",
  "output": "C:\\Users\\Peter\\Desktop\\stuff\\MIUN\\quantitative_research\\video_compression\\compressed_videos\\BVI-HD\\h264\\2\\BallUnderWater_1920x1080_60fps_h264.mp4",
  "codec": "h264",
  "ok": "Input #0, mov,mp4,m4a,3gp,3g2,mj2, from 'C:\\Users\\Peter\\Desktop\\stuff\\MIUN\\quantitative_research\\video_compression\\videos\\BVI-HD\\BVI-HD_CDVL_videos\\ORIG\\BallUnderWater_1920x1080_60fps.mp4':\n  Metadata:\n    major_brand     : isom\n    minor_version   : 512\n    compatible_brands: isomiso2avc1mp41\n    encoder         : Lavf54.28.101\n  Duration: 00:00:05.00, start: 0.000000, bitrate: 212030 kb/s\n  Stream #0:0[0x1](und): Video: h264 (High 4:4:4 Predictive) (avc1 / 0x31637661), yuv420p(progressive), 1920x1080, 212025 kb/s, 60 fps, 60 tbr, 60 tbn (default)\n    Metadata:\n      handler_name    : VideoHandler\n      vendor_id       : [0][0][0][0]\n[out#0/mp4 @ 00000183bf241700] Codec AVOption b:a (set bitrate (in bits/s)) has not been used for any stream. The most likely reason is either wrong type (e.g. a video option with no video streams) or that it is a private option of some decoder which was not actually used for any stream.\nStream mapping:\n  Stream #0:0 -> #0:0 (h264 (native) -> h264 (libx264))\nPress [q] to stop, [?] for help\n[libx264 @ 00000183bf80eb80] using cpu capabilities: MMX2 SSE2Fast SSSE3 SSE4.2 AVX FMA3 BMI2 AVX2\n[libx264 @ 00000183bf80eb80] profile High, level 5.0, 4:2:0, 8-bit\n[libx264 @ 00000183bf80eb80] 264 - core 165 r3222 b35605a - H.264/MPEG-4 AVC codec - Copyleft 2003-2025 - http://www.videolan.org/x264.html - options: cabac=1 ref=5 deblock=1:0:0 analyse=0x3:0x113 me=hex subme=8 psy=1 psy_rd=1.00:0.00 mixed_ref=1 me_range=16 chroma_me=1 trellis=2 8x8dct=1 cqm=0 deadzone=21,11 fast_pskip=1 chroma_qp_offset=-2 threads=18 lookahead_threads=3 sliced_threads=0 nr=0 decimate=1 interlaced=0 bluray_compat=0 constrained_intra=0 bframes=3 b_pyramid=2 b_adapt=1 b_bias=0 direct=3 weightb=1 open_gop=0 weightp=2 keyint=250 keyint_min=25 scenecut=40 intra_refresh=0 rc_lookahead=50 rc=cbr mbtree=1 bitrate=2000 ratetol=1.0 qcomp=0.60 qpmin=0 qpmax=69 qpstep=4 vbv_maxrate=2000 vbv_bufsize=2000 nal_hrd=none filler=0 ip_ratio=1.40 aq=1:1.00\nOutput #0, mp4, to 'C:\\Users\\Peter\\Desktop\\stuff\\MIUN\\quantitative_research\\video_compression\\compressed_videos\\BVI-HD\\h264\\2\\BallUnderWater_1920x1080_60fps_h264.mp4':\n  Metadata:\n    major_brand     : isom\n    minor_version   : 512\n    compatible_brands: isomiso2avc1mp41\n    encoder         : Lavf62.3.100\n  Stream #0:0(und): Video: h264 (avc1 / 0x31637661), yuv420p(tv, progressive), 1920x1080, q=2-31, 2000 kb/s, 60 fps, 15360 tbn (default)\n    Metadata:\n      encoder         : Lavc62.11.100 libx264\n      handler_name    : VideoHandler\n      vendor_id       : [0][0][0][0]\n    Side data:\n      cpb: bitrate max/min/avg: 2000000/0/2000000 buffer size: 2000000 vbv_delay: N/A\nframe=    0 fps=0.0 q=0.0 size=       0KiB time=N/A bitrate=N/A speed=N/A elapsed=0:00:01.05    \nframe=    0 fps=0.0 q=0.0 size=       0KiB time=N/A bitrate=N/A speed=N/A elapsed=0:00:01.61    \nframe=    0 fps=0.0 q=0.0 size=       0KiB time=N/A bitrate=N/A speed=N/A elapsed=0:00:02.25    \nframe=    0 fps=0.0 q=0.0 size=       0KiB time=N/A bitrate=N/A speed=N/A elapsed=0:00:02.89    \nframe=    3 fps=0.8 q=45.0 size=       0KiB time=00:00:00.01 bitrate=  23.0kbits/s speed=0.00469x elapsed=0:00:03.55    \nframe=    6 fps=1.4 q=45.0 size=       0KiB time=00:00:00.06 bitrate=   5.8kbits/s speed=0.0161x elapsed=0:00:04.15    \nframe=    8 fps=1.6 q=44.0 size=       0KiB time=00:00:00.10 bitrate=   3.8kbits/s speed=0.0206x elapsed=0:00:04.84    \nframe=   11 fps=2.1 q=44.0 size=       0KiB time=00:00:00.15 bitrate=   2.6kbits/s speed=0.028x elapsed=0:00:05.35    \nframe=   13 fps=2.2 q=44.0 size=       0KiB time=00:00:00.18 bitrate=   2.1kbits/s speed=0.0312x elapsed=0:00:05.87    \nframe=   21 fps=3.3 q=44.0 size=       0KiB time=00:00:00.31 bitrate=   1.2kbits/s speed=0.0495x elapsed=0:00:06.39    \nframe=   33 fps=4.8 q=43.0 size=       0KiB time=00:00:00.51 bitrate=   0.7kbits/s speed=0.0748x elapsed=0:00:06.90    \nframe=   47 fps=6.3 q=44.0 size=       0KiB time=00:00:00.75 bitrate=   0.5kbits/s speed=0.101x elapsed=0:00:07.42    \nframe=   59 fps=7.4 q=43.0 size=       0KiB time=00:00:00.95 bitrate=   0.4kbits/s speed=0.12x elapsed=0:00:07.93    \nframe=   59 fps=7.0 q=43.0 size=       0KiB time=00:00:00.95 bitrate=   0.4kbits/s speed=0.112x elapsed=0:00:08.46    \nframe=   60 fps=6.7 q=43.0 size=       0KiB time=00:00:00.96 bitrate=   0.4kbits/s speed=0.108x elapsed=0:00:08.96    \nframe=   62 fps=6.5 q=43.0 size=       0KiB time=00:00:01.00 bitrate=   0.4kbits/s speed=0.105x elapsed=0:00:09.49    \nframe=   66 fps=6.6 q=43.0 size=       0KiB time=00:00:01.06 bitrate=   0.4kbits/s speed=0.107x elapsed=0:00:09.99    \nframe=   72 fps=6.8 q=43.0 size=     256KiB time=00:00:01.16 bitrate=1797.9kbits/s speed=0.111x elapsed=0:00:10.51    \nframe=   80 fps=7.2 q=42.0 size=     256KiB time=00:00:01.30 bitrate=1613.5kbits/s speed=0.118x elapsed=0:00:11.04    \nframe=   86 fps=7.4 q=42.0 size=     256KiB time=00:00:01.40 bitrate=1498.2kbits/s speed=0.121x elapsed=0:00:11.54    \nframe=   91 fps=7.5 q=42.0 size=     256KiB time=00:00:01.48 bitrate=1414.1kbits/s speed=0.123x elapsed=0:00:12.07    \nframe=   97 fps=7.7 q=42.0 size=     256KiB time=00:00:01.58 bitrate=1324.8kbits/s speed=0.126x elapsed=0:00:12.57    \nframe=  103 fps=7.9 q=42.0 size=     256KiB time=00:00:01.68 bitrate=1246.1kbits/s speed=0.129x elapsed=0:00:13.09    \nframe=  110 fps=8.1 q=42.0 size=     256KiB time=00:00:01.80 bitrate=1165.3kbits/s speed=0.132x elapsed=0:00:13.62    \nframe=  118 fps=8.3 q=42.0 size=     256KiB time=00:00:01.93 bitrate=1084.9kbits/s speed=0.137x elapsed=0:00:14.14    \nframe=  124 fps=8.5 q=42.0 size=     256KiB time=00:00:02.03 bitrate=1031.6kbits/s speed=0.139x elapsed=0:00:14.66    \nframe=  130 fps=8.6 q=43.0 size=     512KiB time=00:00:02.13 bitrate=1966.3kbits/s speed=0.141x elapsed=0:00:15.17    \nframe=  137 fps=8.7 q=42.0 size=     512KiB time=00:00:02.25 bitrate=1864.3kbits/s speed=0.143x elapsed=0:00:15.69    \nframe=  143 fps=8.8 q=42.0 size=     512KiB time=00:00:02.35 bitrate=1785.0kbits/s speed=0.145x elapsed=0:00:16.20    \nframe=  149 fps=8.9 q=43.0 size=     512KiB time=00:00:02.45 bitrate=1712.1kbits/s speed=0.146x elapsed=0:00:16.72    \nframe=  155 fps=9.0 q=42.0 size=     512KiB time=00:00:02.55 bitrate=1645.0kbits/s speed=0.148x elapsed=0:00:17.23    \nframe=  161 fps=9.1 q=42.0 size=     512KiB time=00:00:02.65 bitrate=1582.9kbits/s speed=0.149x elapsed=0:00:17.75    \nframe=  166 fps=9.1 q=43.0 size=     512KiB time=00:00:02.73 bitrate=1534.6kbits/s speed=0.15x elapsed=0:00:18.27    \nframe=  172 fps=9.2 q=42.0 size=     512KiB time=00:00:02.83 bitrate=1480.5kbits/s speed=0.151x elapsed=0:00:18.78    \nframe=  179 fps=9.3 q=42.0 size=     512KiB time=00:00:02.95 bitrate=1421.9kbits/s speed=0.153x elapsed=0:00:19.30    \nframe=  187 fps=9.4 q=42.0 size=     512KiB time=00:00:03.08 bitrate=1360.4kbits/s speed=0.156x elapsed=0:00:19.81    \nframe=  197 fps=9.7 q=42.0 size=     768KiB time=00:00:03.20 bitrate=1966.2kbits/s speed=0.157x elapsed=0:00:20.33    \nframe=  200 fps=9.5 q=42.0 size=     768KiB time=00:00:03.30 bitrate=1906.6kbits/s speed=0.157x elapsed=0:00:20.96    \nframe=  203 fps=9.4 q=42.0 size=     768KiB time=00:00:03.35 bitrate=1878.2kbits/s speed=0.156x elapsed=0:00:21.52    \nframe=  209 fps=9.5 q=43.0 size=     768KiB time=00:00:03.45 bitrate=1823.7kbits/s speed=0.157x elapsed=0:00:22.02    \nframe=  216 fps=9.6 q=43.0 size=     768KiB time=00:00:03.56 bitrate=1764.1kbits/s speed=0.158x elapsed=0:00:22.58    \nframe=  224 fps=9.7 q=43.0 size=     768KiB time=00:00:03.70 bitrate=1700.5kbits/s speed=0.16x elapsed=0:00:23.08    \nframe=  231 fps=9.8 q=43.0 size=     768KiB time=00:00:03.81 bitrate=1648.5kbits/s speed=0.162x elapsed=0:00:23.60    \nframe=  245 fps= 10 q=43.0 size=     768KiB time=00:00:04.05 bitrate=1553.5kbits/s speed=0.168x elapsed=0:00:24.12    \nframe=  265 fps= 11 q=43.0 size=    1024KiB time=00:00:04.38 bitrate=1913.8kbits/s speed=0.178x elapsed=0:00:24.65    \nframe=  280 fps= 11 q=40.0 size=    1024KiB time=00:00:04.58 bitrate=1830.3kbits/s speed=0.182x elapsed=0:00:25.21    \nframe=  292 fps= 11 q=-1.0 size=    1024KiB time=00:00:04.83 bitrate=1735.7kbits/s speed=0.188x elapsed=0:00:25.76    \n[mp4 @ 00000183bf239980] Starting second pass: moving the moov atom to the beginning of the file\n[out#0/mp4 @ 00000183bf241700] video:1220KiB audio:0KiB subtitle:0KiB other streams:0KiB global headers:0KiB muxing overhead: 0.219198%\nframe=  300 fps= 12 q=-1.0 Lsize=    1223KiB time=00:00:04.96 bitrate=2017.1kbits/s speed=0.192x elapsed=0:00:25.83    \n[libx264 @ 00000183bf80eb80] frame I:3     Avg QP:36.03  size:  8741\n[libx264 @ 00000183bf80eb80] frame P:238   Avg QP:39.00  size:  4427\n[libx264 @ 00000183bf80eb80] frame B:59    Avg QP:41.75  size:  2863\n[libx264 @ 00000183bf80eb80] consecutive B-frames: 73.3%  0.7%  2.0% 24.0%\n[libx264 @ 00000183bf80eb80] mb I  I16..4: 42.4% 57.4%  0.2%\n[libx264 @ 00000183bf80eb80] mb P  I16..4: 15.0% 21.2%  0.0%  P16..4: 11.1%  0.3%  0.1%  0.0%  0.0%    skip:52.3%\n[libx264 @ 00000183bf80eb80] mb B  I16..4:  2.1%  2.1%  0.0%  B16..8: 23.7%  0.5%  0.0%  direct: 0.2%  skip:71.3%  L0:50.8% L1:47.4% BI: 1.9%\n[libx264 @ 00000183bf80eb80] 8x8 transform intra:58.3% inter:92.9%\n[libx264 @ 00000183bf80eb80] direct mvs  spatial:84.7% temporal:15.3%\n[libx264 @ 00000183bf80eb80] coded y,uvDC,uvAC intra: 0.9% 14.0% 0.2% inter: 0.3% 2.2% 0.0%\n[libx264 @ 00000183bf80eb80] i16 v,h,dc,p: 31% 34%  4% 31%\n[libx264 @ 00000183bf80eb80] i8 v,h,dc,ddl,ddr,vr,hd,vl,hu:  2%  2% 94%  0%  0%  0%  0%  0%  0%\n[libx264 @ 00000183bf80eb80] i4 v,h,dc,ddl,ddr,vr,hd,vl,hu:  6%  4% 75%  3%  4%  1%  2%  2%  3%\n[libx264 @ 00000183bf80eb80] i8c dc,h,v,p: 95%  4%  1%  0%\n[libx264 @ 00000183bf80eb80] Weighted P-Frames: Y:5.9% UV:2.1%\n[libx264 @ 00000183bf80eb80] ref P L0: 47.3%  4.8% 21.7% 10.2%  8.5%  7.0%  0.4%\n[libx264 @ 00000183bf80eb80] ref B L0: 72.5% 16.8%  8.2%  2.5%\n[libx264 @ 00000183bf80eb80] ref B L1: 91.2%  8.8%\n[libx264 @ 00000183bf80eb80] kb/s:1998.07\n",
  "seconds": 27.227911472320557,
  "probe_out": {}
}